<svg width="33" height="32" viewBox="0 0 33 32" fill="none" xmlns="http://www.w3.org/2000/svg">
<path d="M18.3601 32H14.8045V30.2222H13.0267V28.4444H11.2489V26.6667H9.47116V24.8889H7.69339V23.1111H5.91561V21.3333H4.13783V19.5556H2.36005V17.7778H0.582275V14.2222H2.36005V12.4444H4.13783V10.6667H5.91561V8.88889H7.69339V7.11111H9.47116V5.33333H11.2489V3.55556H13.0267V1.77778H14.8045V0H18.3601V8.88889H32.5823V23.1111H18.3601V32ZM14.8045 24.8889V19.5556H29.0267V12.4444H14.8045V7.11111H13.0267V8.88889H11.2489V10.6667H9.47116V12.4444H7.69339V14.2222H5.91561V17.7778H7.69339V19.5556H9.47116V21.3333H11.2489V23.1111H13.0267V24.8889H14.8045Z" fill="#FFCE60"/>
</svg>
