<svg width="33" height="32" viewBox="0 0 33 32" fill="none" xmlns="http://www.w3.org/2000/svg">
<path d="M14.8045 32H18.3601V30.2222H20.1378V28.4444H21.9156V26.6667H23.6934V24.8889H25.4712V23.1111H27.2489V21.3333H29.0267V19.5556H30.8045V17.7778H32.5823V14.2222H30.8045V12.4444H29.0267V10.6667H27.2489V8.88889H25.4712V7.11111H23.6934V5.33333H21.9156V3.55556H20.1378V1.77778H18.3601V0H14.8045V8.88889H0.582275V23.1111H14.8045V32ZM18.3601 24.8889V19.5556H4.13783V12.4444H18.3601V7.11111H20.1378V8.88889H21.9156V10.6667H23.6934V12.4444H25.4712V14.2222H27.2489V17.7778H25.4712V19.5556H23.6934V21.3333H21.9156V23.1111H20.1378V24.8889H18.3601Z" fill="#FFCE60"/>
</svg>
