<svg width="30" height="23" viewBox="0 0 30 23" fill="none" xmlns="http://www.w3.org/2000/svg">
<path d="M24.8463 1.99363C22.9756 1.13527 20.9696 0.502879 18.8721 0.14068C18.8339 0.133689 18.7958 0.151158 18.7761 0.186098C18.5181 0.644959 18.2323 1.24358 18.0322 1.7141C15.7763 1.37636 13.5319 1.37636 11.3223 1.7141C11.1221 1.23312 10.826 0.644959 10.5668 0.186098C10.5471 0.152324 10.509 0.134855 10.4708 0.14068C8.37451 0.501722 6.36848 1.13412 4.49663 1.99363C4.48043 2.00061 4.46654 2.01227 4.45732 2.0274C0.652301 7.71202 -0.390054 13.2569 0.12129 18.7331C0.123604 18.7599 0.138643 18.7855 0.159468 18.8018C2.66991 20.6454 5.10171 21.7646 7.48834 22.5065C7.52654 22.5181 7.56701 22.5042 7.59131 22.4727C8.15587 21.7017 8.65913 20.8888 9.09062 20.0339C9.11608 19.9839 9.09178 19.9245 9.03973 19.9047C8.24149 19.6019 7.4814 19.2327 6.75024 18.8134C6.69241 18.7797 6.68778 18.6969 6.74098 18.6573C6.89484 18.542 7.04875 18.4221 7.19566 18.301C7.22225 18.2788 7.25928 18.2742 7.29054 18.2881C12.0939 20.4812 17.2941 20.4812 22.0408 18.2881C22.0721 18.273 22.1091 18.2777 22.1368 18.2998C22.2838 18.4209 22.4377 18.542 22.5927 18.6573C22.6459 18.6969 22.6424 18.7797 22.5846 18.8134C21.8534 19.2408 21.0933 19.6019 20.2939 19.9035C20.2419 19.9233 20.2187 19.9839 20.2442 20.0339C20.6849 20.8876 21.1882 21.7005 21.7423 22.4716C21.7655 22.5042 21.8071 22.5181 21.8453 22.5065C24.2435 21.7646 26.6753 20.6454 29.1858 18.8018C29.2077 18.7855 29.2216 18.761 29.2239 18.7342C29.8359 12.4032 28.1989 6.90377 24.8844 2.02856C24.8763 2.01227 24.8625 2.00061 24.8463 1.99363ZM9.80793 15.3987C8.36178 15.3987 7.1702 14.071 7.1702 12.4405C7.1702 10.81 8.33867 9.4823 9.80793 9.4823C11.2887 9.4823 12.4688 10.8216 12.4456 12.4405C12.4456 14.071 11.2771 15.3987 9.80793 15.3987ZM19.5605 15.3987C18.1144 15.3987 16.9228 14.071 16.9228 12.4405C16.9228 10.81 18.0912 9.4823 19.5605 9.4823C21.0413 9.4823 22.2213 10.8216 22.1982 12.4405C22.1982 14.071 21.0413 15.3987 19.5605 15.3987Z" fill="#4BD5E9"/>
</svg>
