<svg width="30" height="23" viewBox="0 0 30 23" fill="none" xmlns="http://www.w3.org/2000/svg">
<path d="M24.8463 2.34397C22.9756 1.48562 20.9696 0.853221 18.8721 0.491021C18.8339 0.484031 18.7958 0.5015 18.7761 0.53644C18.5181 0.995301 18.2323 1.59392 18.0322 2.06444C15.7763 1.7267 13.5319 1.7267 11.3223 2.06444C11.1221 1.58347 10.826 0.995301 10.5668 0.53644C10.5471 0.502666 10.509 0.485197 10.4708 0.491021C8.37451 0.852063 6.36848 1.48446 4.49663 2.34397C4.48043 2.35096 4.46654 2.36261 4.45732 2.37774C0.652301 8.06236 -0.390054 13.6073 0.12129 19.0834C0.123604 19.1102 0.138643 19.1358 0.159468 19.1521C2.66991 20.9957 5.10171 22.115 7.48834 22.8568C7.52654 22.8685 7.56701 22.8545 7.59131 22.8231C8.15587 22.0521 8.65913 21.2392 9.09062 20.3843C9.11608 20.3342 9.09178 20.2748 9.03973 20.255C8.24149 19.9522 7.4814 19.583 6.75024 19.1638C6.69241 19.13 6.68778 19.0473 6.74098 19.0077C6.89484 18.8924 7.04875 18.7724 7.19566 18.6513C7.22225 18.6292 7.25928 18.6245 7.29054 18.6385C12.0939 20.8315 17.2941 20.8315 22.0408 18.6385C22.0721 18.6234 22.1091 18.628 22.1368 18.6501C22.2838 18.7713 22.4377 18.8924 22.5927 19.0077C22.6459 19.0473 22.6424 19.13 22.5846 19.1638C21.8534 19.5912 21.0933 19.9522 20.2939 20.2539C20.2419 20.2737 20.2187 20.3342 20.2442 20.3843C20.6849 21.238 21.1882 22.0509 21.7423 22.8219C21.7655 22.8545 21.8071 22.8685 21.8453 22.8568C24.2435 22.115 26.6753 20.9957 29.1858 19.1521C29.2077 19.1358 29.2216 19.1114 29.2239 19.0846C29.8359 12.7535 28.1989 7.25411 24.8844 2.3789C24.8763 2.36261 24.8625 2.35096 24.8463 2.34397ZM9.80793 15.749C8.36178 15.749 7.1702 14.4213 7.1702 12.7908C7.1702 11.1603 8.33867 9.83264 9.80793 9.83264C11.2887 9.83264 12.4688 11.172 12.4456 12.7908C12.4456 14.4213 11.2771 15.749 9.80793 15.749ZM19.5605 15.749C18.1144 15.749 16.9228 14.4213 16.9228 12.7908C16.9228 11.1603 18.0912 9.83264 19.5605 9.83264C21.0413 9.83264 22.2213 11.172 22.1982 12.7908C22.1982 14.4213 21.0413 15.749 19.5605 15.749Z" fill="#FFCE60"/>
</svg>
