<svg width="30" height="30" viewBox="0 0 30 30" fill="none" xmlns="http://www.w3.org/2000/svg">
<path fill-rule="evenodd" clip-rule="evenodd" d="M15.3052 0.244629C7.18352 0.244629 0.61792 6.85863 0.61792 15.0411C0.61792 21.5817 4.82473 27.1182 10.6607 29.0778C11.3903 29.2251 11.6576 28.7594 11.6576 28.3677C11.6576 28.0247 11.6335 26.8489 11.6335 25.6238C7.54789 26.5058 6.69709 23.8599 6.69709 23.8599C6.0405 22.1451 5.06764 21.7044 5.06764 21.7044C3.73041 20.798 5.16505 20.798 5.16505 20.798C6.64839 20.896 7.42674 22.3168 7.42674 22.3168C8.73962 24.5703 10.8552 23.9336 11.7063 23.5416C11.8278 22.5861 12.2171 21.9247 12.6305 21.5574C9.37186 21.2143 5.9434 19.9405 5.9434 14.257C5.9434 12.6402 6.52663 11.3174 7.45079 10.2886C7.30498 9.92122 6.7942 8.4021 7.5969 6.3689C7.5969 6.3689 8.83703 5.97687 11.6332 7.88771C12.8304 7.56383 14.065 7.39906 15.3052 7.39768C16.5453 7.39768 17.8095 7.56934 18.9769 7.88771C21.7734 5.97687 23.0135 6.3689 23.0135 6.3689C23.8162 8.4021 23.3052 9.92122 23.1594 10.2886C24.1079 11.3174 24.667 12.6402 24.667 14.257C24.667 19.9405 21.2386 21.1897 17.9556 21.5574C18.4908 22.0227 18.9525 22.9045 18.9525 24.301C18.9525 26.2852 18.9285 27.8776 18.9285 28.3674C18.9285 28.7594 19.1961 29.2251 19.9254 29.0781C25.7614 27.1179 29.9682 21.5817 29.9682 15.0411C29.9922 6.85863 23.4026 0.244629 15.3052 0.244629Z" fill="#FFCE60"/>
</svg>
