<svg width="30" height="30" viewBox="0 0 30 30" fill="none" xmlns="http://www.w3.org/2000/svg">
<path fill-rule="evenodd" clip-rule="evenodd" d="M15.3052 0.894165C7.18352 0.894165 0.61792 7.50817 0.61792 15.6906C0.61792 22.2312 4.82473 27.7678 10.6607 29.7273C11.3903 29.8746 11.6576 29.4089 11.6576 29.0172C11.6576 28.6742 11.6335 27.4984 11.6335 26.2733C7.54789 27.1554 6.69709 24.5095 6.69709 24.5095C6.0405 22.7946 5.06764 22.3539 5.06764 22.3539C3.73041 21.4475 5.16505 21.4475 5.16505 21.4475C6.64839 21.5455 7.42674 22.9663 7.42674 22.9663C8.73962 25.2199 10.8552 24.5831 11.7063 24.1911C11.8278 23.2357 12.2171 22.5743 12.6305 22.2069C9.37186 21.8639 5.9434 20.5901 5.9434 14.9065C5.9434 13.2897 6.52663 11.9669 7.45079 10.9381C7.30498 10.5708 6.7942 9.05164 7.5969 7.01843C7.5969 7.01843 8.83703 6.6264 11.6332 8.53725C12.8304 8.21336 14.065 8.0486 15.3052 8.04721C16.5453 8.04721 17.8095 8.21888 18.9769 8.53725C21.7734 6.6264 23.0135 7.01843 23.0135 7.01843C23.8162 9.05164 23.3052 10.5708 23.1594 10.9381C24.1079 11.9669 24.667 13.2897 24.667 14.9065C24.667 20.5901 21.2386 21.8392 17.9556 22.2069C18.4908 22.6723 18.9525 23.554 18.9525 24.9505C18.9525 26.9347 18.9285 28.5272 18.9285 29.0169C18.9285 29.4089 19.1961 29.8746 19.9254 29.7276C25.7614 27.7675 29.9682 22.2312 29.9682 15.6906C29.9922 7.50817 23.4026 0.894165 15.3052 0.894165Z" fill="#4BD5E9"/>
</svg>
