<svg width="30" height="30" viewBox="0 0 30 30" fill="none" xmlns="http://www.w3.org/2000/svg">
<g clip-path="url(#clip0_89_15)">
<path d="M15.3248 3.29233C19.2458 3.29233 19.7102 3.30953 21.2522 3.37832C22.6853 3.44138 23.4592 3.68214 23.9751 3.88278C24.6573 4.14647 25.1503 4.46749 25.6605 4.97768C26.1764 5.49361 26.4917 5.98087 26.7554 6.66303C26.956 7.17896 27.1968 7.95858 27.2599 9.38596C27.3286 10.9337 27.3458 11.3981 27.3458 15.3134C27.3458 19.2344 27.3286 19.6987 27.2599 21.2407C27.1968 22.6739 26.956 23.4477 26.7554 23.9637C26.4917 24.6458 26.1707 25.1388 25.6605 25.649C25.1446 26.1649 24.6573 26.4802 23.9751 26.7439C23.4592 26.9446 22.6796 27.1853 21.2522 27.2484C19.7044 27.3172 19.2401 27.3344 15.3248 27.3344C11.4038 27.3344 10.9395 27.3172 9.39743 27.2484C7.96431 27.1853 7.19042 26.9446 6.6745 26.7439C5.99233 26.4802 5.49934 26.1592 4.98915 25.649C4.47323 25.1331 4.15794 24.6458 3.89424 23.9637C3.69361 23.4477 3.45284 22.6681 3.38979 21.2407C3.321 19.693 3.3038 19.2286 3.3038 15.3134C3.3038 11.3923 3.321 10.928 3.38979 9.38596C3.45284 7.95284 3.69361 7.17896 3.89424 6.66303C4.15794 5.98087 4.47896 5.48787 4.98915 4.97768C5.50507 4.46176 5.99233 4.14647 6.6745 3.88278C7.19042 3.68214 7.97004 3.44138 9.39743 3.37832C10.9395 3.30953 11.4038 3.29233 15.3248 3.29233ZM15.3248 0.649658C11.3407 0.649658 10.842 0.666856 9.27705 0.735645C7.71781 0.804435 6.64584 1.05666 5.71717 1.41781C4.74838 1.79615 3.92864 2.29488 3.11463 3.11463C2.29488 3.92864 1.79616 4.74838 1.41781 5.71144C1.05666 6.64584 0.804435 7.71208 0.735645 9.27131C0.666856 10.842 0.649658 11.3407 0.649658 15.3248C0.649658 19.3089 0.666856 19.8076 0.735645 21.3726C0.804435 22.9318 1.05666 24.0038 1.41781 24.9325C1.79616 25.9013 2.29488 26.721 3.11463 27.535C3.92864 28.349 4.74838 28.8535 5.71144 29.2261C6.64584 29.5872 7.71208 29.8395 9.27131 29.9083C10.8363 29.977 11.335 29.9942 15.3191 29.9942C19.3032 29.9942 19.8019 29.977 21.3669 29.9083C22.9261 29.8395 23.9981 29.5872 24.9267 29.2261C25.8898 28.8535 26.7095 28.349 27.5235 27.535C28.3376 26.721 28.842 25.9013 29.2146 24.9382C29.5758 24.0038 29.828 22.9376 29.8968 21.3783C29.9656 19.8134 29.9828 19.3146 29.9828 15.3306C29.9828 11.3465 29.9656 10.8477 29.8968 9.28278C29.828 7.72354 29.5758 6.65157 29.2146 5.72291C28.8535 4.74838 28.3548 3.92864 27.535 3.11463C26.721 2.30061 25.9013 1.79616 24.9382 1.42354C24.0038 1.0624 22.9376 0.810168 21.3783 0.741378C19.8076 0.666856 19.3089 0.649658 15.3248 0.649658Z" fill="#4BD5E9"/>
<path d="M15.3248 7.78662C11.1631 7.78662 7.78662 11.1631 7.78662 15.3248C7.78662 19.4866 11.1631 22.8631 15.3248 22.8631C19.4866 22.8631 22.8631 19.4866 22.8631 15.3248C22.8631 11.1631 19.4866 7.78662 15.3248 7.78662ZM15.3248 20.2146C12.6248 20.2146 10.435 18.0248 10.435 15.3248C10.435 12.6248 12.6248 10.435 15.3248 10.435C18.0248 10.435 20.2146 12.6248 20.2146 15.3248C20.2146 18.0248 18.0248 20.2146 15.3248 20.2146Z" fill="#4BD5E9"/>
<path d="M24.9211 7.48864C24.9211 8.46316 24.13 9.24851 23.1612 9.24851C22.1867 9.24851 21.4014 8.45743 21.4014 7.48864C21.4014 6.51411 22.1925 5.72876 23.1612 5.72876C24.13 5.72876 24.9211 6.51984 24.9211 7.48864Z" fill="#4BD5E9"/>
</g>
<defs>
<clipPath id="clip0_89_15">
<rect width="29.3503" height="29.3503" fill="white" transform="translate(0.649658 0.649658)"/>
</clipPath>
</defs>
</svg>
