<svg width="30" height="30" viewBox="0 0 30 30" fill="none" xmlns="http://www.w3.org/2000/svg">
<g clip-path="url(#clip0_62_185)">
<path d="M15.3248 2.64267C19.2458 2.64267 19.7102 2.65987 21.2522 2.72866C22.6853 2.79172 23.4592 3.03248 23.9751 3.23312C24.6573 3.49682 25.1503 3.81783 25.6605 4.32803C26.1764 4.84395 26.4917 5.33121 26.7554 6.01338C26.956 6.5293 27.1968 7.30892 27.2599 8.73631C27.3286 10.2841 27.3458 10.7484 27.3458 14.6637C27.3458 18.5847 27.3286 19.049 27.2599 20.5911C27.1968 22.0242 26.956 22.7981 26.7554 23.314C26.4917 23.9962 26.1707 24.4892 25.6605 24.9994C25.1446 25.5153 24.6573 25.8306 23.9751 26.0943C23.4592 26.2949 22.6796 26.5357 21.2522 26.5987C19.7044 26.6675 19.2401 26.6847 15.3248 26.6847C11.4038 26.6847 10.9395 26.6675 9.39743 26.5987C7.96431 26.5357 7.19042 26.2949 6.6745 26.0943C5.99233 25.8306 5.49934 25.5096 4.98915 24.9994C4.47323 24.4834 4.15794 23.9962 3.89424 23.314C3.69361 22.7981 3.45284 22.0185 3.38979 20.5911C3.321 19.0433 3.3038 18.579 3.3038 14.6637C3.3038 10.7427 3.321 10.2783 3.38979 8.73631C3.45284 7.30318 3.69361 6.5293 3.89424 6.01338C4.15794 5.33121 4.47896 4.83822 4.98915 4.32803C5.50507 3.8121 5.99233 3.49682 6.6745 3.23312C7.19042 3.03248 7.97004 2.79172 9.39743 2.72866C10.9395 2.65987 11.4038 2.64267 15.3248 2.64267ZM15.3248 0C11.3407 0 10.842 0.0171974 9.27705 0.0859873C7.71781 0.154777 6.64584 0.407006 5.71717 0.768153C4.74838 1.1465 3.92864 1.64522 3.11463 2.46497C2.29488 3.27898 1.79616 4.09873 1.41781 5.06178C1.05666 5.99618 0.804435 7.06242 0.735645 8.62166C0.666856 10.1924 0.649658 10.6911 0.649658 14.6752C0.649658 18.6592 0.666856 19.158 0.735645 20.7229C0.804435 22.2822 1.05666 23.3541 1.41781 24.2828C1.79616 25.2516 2.29488 26.0713 3.11463 26.8854C3.92864 27.6994 4.74838 28.2038 5.71144 28.5764C6.64584 28.9376 7.71208 29.1898 9.27131 29.2586C10.8363 29.3274 11.335 29.3446 15.3191 29.3446C19.3032 29.3446 19.8019 29.3274 21.3669 29.2586C22.9261 29.1898 23.9981 28.9376 24.9267 28.5764C25.8898 28.2038 26.7095 27.6994 27.5235 26.8854C28.3376 26.0713 28.842 25.2516 29.2146 24.2885C29.5758 23.3541 29.828 22.2879 29.8968 20.7287C29.9656 19.1637 29.9828 18.665 29.9828 14.6809C29.9828 10.6968 29.9656 10.1981 29.8968 8.63312C29.828 7.07389 29.5758 6.00191 29.2146 5.07325C28.8535 4.09873 28.3548 3.27898 27.535 2.46497C26.721 1.65096 25.9013 1.1465 24.9382 0.773885C24.0038 0.412739 22.9376 0.16051 21.3783 0.0917198C19.8076 0.0171975 19.3089 0 15.3248 0Z" fill="#FFCE60"/>
<path d="M15.3248 7.13696C11.1631 7.13696 7.78662 10.5134 7.78662 14.6752C7.78662 18.837 11.1631 22.2134 15.3248 22.2134C19.4866 22.2134 22.8631 18.837 22.8631 14.6752C22.8631 10.5134 19.4866 7.13696 15.3248 7.13696ZM15.3248 19.565C12.6248 19.565 10.435 17.3752 10.435 14.6752C10.435 11.9752 12.6248 9.78537 15.3248 9.78537C18.0248 9.78537 20.2146 11.9752 20.2146 14.6752C20.2146 17.3752 18.0248 19.565 15.3248 19.565Z" fill="#FFCE60"/>
<path d="M24.9211 6.83898C24.9211 7.8135 24.13 8.59885 23.1612 8.59885C22.1867 8.59885 21.4014 7.80777 21.4014 6.83898C21.4014 5.86445 22.1925 5.0791 23.1612 5.0791C24.13 5.0791 24.9211 5.87019 24.9211 6.83898Z" fill="#FFCE60"/>
</g>
<defs>
<clipPath id="clip0_62_185">
<rect width="29.3503" height="29.3503" fill="white" transform="translate(0.649658)"/>
</clipPath>
</defs>
</svg>
